<?xml version="1.0" encoding="utf-8"?>
<!-- Generator: Adobe Illustrator 27.5.0, SVG Export Plug-In . SVG Version: 6.00 Build 0)  -->
<svg version="1.1" xmlns="http://www.w3.org/2000/svg" xmlns:xlink="http://www.w3.org/1999/xlink" x="0px" y="0px"
	 viewBox="0 0 900 500" style="enable-background:new 0 0 900 500;" xml:space="preserve">
<g id="BACKGROUND">
	<rect style="fill:#F2CF67;" width="900" height="500"/>
</g>
<g id="OBJECTS">
	<g>
		<g>
			<g>
				<path style="fill:#F7E1A0;" d="M413.16,300.821h-7.191v-29.728c0-1.692,1.371-3.063,3.063-3.063h1.065
					c1.692,0,3.063,1.371,3.063,3.063V300.821z"/>
				<path style="fill:#F7E1A0;" d="M439.159,300.821h-7.191v-39.553c0-1.986,1.61-3.596,3.596-3.596l0,0
					c1.986,0,3.596,1.61,3.596,3.596V300.821z"/>
				<path style="fill:#F7E1A0;" d="M426.484,300.821h-7.191V250.99c0-1.986,1.61-3.596,3.596-3.596l0,0
					c1.986,0,3.596,1.61,3.596,3.596V300.821z"/>
				<path style="fill:#F7E1A0;" d="M454.058,300.821h-7.191v-64.692c0-1.986,1.61-3.596,3.596-3.596h0
					c1.986,0,3.596,1.61,3.596,3.596V300.821z"/>
				<polyline style="fill:none;stroke:#F7E1A0;stroke-linecap:round;stroke-linejoin:round;stroke-miterlimit:10;" points="
					395.31,239.719 395.31,300.821 462.818,300.821 				"/>
				<polyline style="fill:none;stroke:#FFFFFF;stroke-linecap:round;stroke-linejoin:round;stroke-miterlimit:10;" points="
					399.115,298.473 421.965,263.87 434.982,273.854 452.291,246.181 				"/>
				<polygon style="fill:#FFFFFF;stroke:#FFFFFF;stroke-linecap:round;stroke-linejoin:round;stroke-miterlimit:10;" points="
					452.65,245.49 449.48,246.009 455.374,241.228 453.86,248.314 				"/>
			</g>
			<g>
				<path style="fill:#F2CF67;stroke:#F7E1A0;stroke-linecap:round;stroke-linejoin:round;stroke-miterlimit:10;" d="
					M822.58,287.522l-24.822-0.299c-0.534,0-0.967-0.573-0.967-1.279v-11.542c0-0.706,0.433-1.279,0.967-1.279l24.822,0.299
					c0.534,0,0.967,0.573,0.967,1.279v11.542C823.547,286.949,823.114,287.522,822.58,287.522z"/>
				
					<line style="fill:none;stroke:#F7E1A0;stroke-linecap:round;stroke-linejoin:round;stroke-miterlimit:10;" x1="799.916" y1="276.218" x2="819.917" y2="276.218"/>
				
					<line style="fill:none;stroke:#F7E1A0;stroke-linecap:round;stroke-linejoin:round;stroke-miterlimit:10;" x1="799.916" y1="278.621" x2="819.917" y2="278.621"/>
				
					<line style="fill:none;stroke:#F7E1A0;stroke-linecap:round;stroke-linejoin:round;stroke-miterlimit:10;" x1="799.916" y1="280.903" x2="819.917" y2="280.903"/>
				
					<line style="fill:none;stroke:#F7E1A0;stroke-linecap:round;stroke-linejoin:round;stroke-miterlimit:10;" x1="799.916" y1="282.946" x2="819.917" y2="282.946"/>
				
					<line style="fill:none;stroke:#F7E1A0;stroke-linecap:round;stroke-linejoin:round;stroke-miterlimit:10;" x1="799.916" y1="285.229" x2="819.917" y2="285.229"/>
			</g>
			<g>
				<path style="fill:#FFFFFF;" d="M521.846,216.856l2.063-0.032c0.238-0.004,0.428-0.199,0.424-0.437l-0.047-2.994
					c-0.004-0.238-0.199-0.428-0.437-0.424l-2.131,0.033c-0.258-0.974-0.683-1.879-1.241-2.685l1.521-1.601
					c0.164-0.172,0.157-0.445-0.016-0.609l-2.171-2.063c-0.172-0.164-0.445-0.157-0.609,0.016l-1.575,1.657
					c-0.745-0.421-1.558-0.734-2.419-0.918v-2.334c0-0.238-0.193-0.431-0.431-0.431h-2.995c-0.238,0-0.431,0.193-0.431,0.431v2.392
					c-0.961,0.235-1.858,0.632-2.661,1.159l-1.774-1.7c-0.172-0.165-0.444-0.159-0.609,0.013l-2.072,2.162
					c-0.165,0.172-0.159,0.444,0.013,0.609l1.772,1.698c-0.451,0.754-0.789,1.583-0.993,2.463l-2.429,0.038
					c-0.238,0.004-0.428,0.199-0.424,0.437l0.046,2.994c0.004,0.238,0.199,0.428,0.437,0.424l2.359-0.037
					c0.22,0.97,0.603,1.878,1.12,2.693l-1.575,1.657c-0.164,0.172-0.157,0.445,0.016,0.609l2.171,2.063
					c0.172,0.164,0.445,0.157,0.609-0.016l1.52-1.6c0.755,0.468,1.587,0.822,2.474,1.039v2.155c0,0.238,0.193,0.431,0.431,0.431
					h2.995c0.238,0,0.431-0.193,0.431-0.431v-2.098c1.057-0.226,2.041-0.646,2.915-1.22l1.467,1.407
					c0.172,0.165,0.444,0.159,0.609-0.013l2.072-2.162c0.165-0.172,0.159-0.444-0.013-0.609l-1.468-1.407
					C521.292,218.778,521.654,217.847,521.846,216.856z M518.391,217.315c-0.517,1.223-1.472,2.217-2.667,2.785
					c-0.167,0.08-0.34,0.15-0.516,0.213c-0.564,0.2-1.171,0.309-1.804,0.309c-0.727,0-1.419-0.144-2.052-0.404
					c-0.068-0.028-0.134-0.057-0.201-0.088c-1.205-0.553-2.173-1.535-2.706-2.751c-0.045-0.103-0.088-0.208-0.127-0.314
					c-0.211-0.579-0.327-1.204-0.327-1.856c0-0.707,0.137-1.382,0.384-2.001c0.015-0.037,0.029-0.074,0.044-0.111
					c0.519-1.223,1.474-2.215,2.671-2.781c0.086-0.041,0.173-0.079,0.262-0.115c0.633-0.26,1.326-0.404,2.052-0.404
					c0.633,0,1.24,0.11,1.804,0.309c0.037,0.013,0.074,0.027,0.111,0.04c1.247,0.472,2.274,1.391,2.885,2.562
					c0.059,0.113,0.114,0.227,0.165,0.345c0.287,0.661,0.448,1.39,0.448,2.156c0,0.593-0.097,1.163-0.273,1.697
					C518.498,217.046,518.448,217.182,518.391,217.315z"/>
			</g>
			<g>
				<path style="fill:#FFFFFF;" d="M778.433,325.075l2.636-0.041c0.304-0.005,0.546-0.255,0.542-0.559l-0.059-3.827
					c-0.005-0.304-0.255-0.547-0.559-0.542l-2.724,0.042c-0.33-1.244-0.873-2.401-1.586-3.431l1.943-2.045
					c0.209-0.22,0.201-0.569-0.02-0.778l-2.775-2.636c-0.22-0.209-0.569-0.2-0.778,0.02l-2.013,2.118
					c-0.952-0.538-1.991-0.938-3.092-1.173v-2.983c0-0.304-0.246-0.55-0.55-0.55h-3.827c-0.304,0-0.55,0.246-0.55,0.55v3.056
					c-1.228,0.301-2.374,0.807-3.401,1.482l-2.267-2.173c-0.219-0.21-0.568-0.203-0.778,0.016l-2.649,2.763
					c-0.21,0.219-0.203,0.568,0.016,0.778l2.264,2.171c-0.577,0.963-1.008,2.022-1.269,3.148l-3.104,0.048
					c-0.304,0.005-0.547,0.255-0.542,0.559l0.059,3.827c0.005,0.304,0.255,0.546,0.559,0.542l3.015-0.047
					c0.281,1.24,0.771,2.4,1.431,3.441l-2.013,2.118c-0.209,0.22-0.2,0.569,0.02,0.778l2.775,2.636c0.22,0.209,0.569,0.2,0.778-0.02
					l1.942-2.044c0.965,0.598,2.029,1.051,3.162,1.328v2.754c0,0.304,0.246,0.55,0.55,0.55h3.827c0.304,0,0.55-0.246,0.55-0.55
					v-2.681c1.351-0.288,2.609-0.825,3.726-1.56l1.875,1.798c0.219,0.21,0.568,0.203,0.778-0.016l2.649-2.763
					c0.21-0.219,0.203-0.568-0.016-0.778l-1.876-1.798C777.725,327.531,778.187,326.342,778.433,325.075z M774.018,325.662
					c-0.661,1.564-1.881,2.833-3.409,3.559c-0.214,0.102-0.435,0.192-0.66,0.272c-0.721,0.255-1.497,0.395-2.305,0.395
					c-0.929,0-1.814-0.184-2.623-0.516c-0.086-0.035-0.172-0.073-0.256-0.112c-1.541-0.706-2.776-1.961-3.458-3.515
					c-0.058-0.132-0.113-0.266-0.163-0.402c-0.27-0.74-0.418-1.539-0.418-2.372c0-0.904,0.175-1.766,0.49-2.558
					c0.019-0.047,0.036-0.095,0.056-0.142c0.663-1.563,1.884-2.83,3.413-3.555c0.11-0.052,0.221-0.101,0.334-0.147
					c0.809-0.332,1.694-0.516,2.623-0.516c0.809,0,1.584,0.14,2.305,0.395c0.047,0.017,0.094,0.034,0.141,0.052
					c1.594,0.603,2.906,1.778,3.687,3.274c0.075,0.144,0.146,0.291,0.211,0.44c0.367,0.845,0.572,1.776,0.572,2.756
					c0,0.758-0.124,1.487-0.349,2.169C774.153,325.318,774.09,325.492,774.018,325.662z"/>
			</g>
			<g>
				<g>
					<path style="fill:#F7E1A0;" d="M831.459,215.399c1.971-0.031,3.258,0.409,3.926-1.492c0.523-1.489,0.311-4.196-1.167-4.95
						c-0.437-0.223-1.116,0.16-1.561-0.006c-1.163-0.431-0.389-0.081-1.076-0.732c-2.042-1.935-0.024-1.765,0.601-3.444
						c0.628-1.687-1.114-3.708-2.692-4.377c-0.591-0.251-0.957-0.453-1.7-0.233c-0.32,0.095-0.423,0.5-0.7,0.638
						c-1.519,0.754-0.464,1.302-2.135,0.818c-2.182-0.632-0.484-1.062-1.23-2.809c-0.299-0.699-0.283-0.8-0.906-1.193
						c-0.958-0.604-4.489-0.505-5.296,0.515c-0.659,0.833,0.208,2.207-0.226,3.038c-0.215,0.412-0.734,0.404-1.396,0.666
						c-1.606,0.635-0.665,0.505-2.194-0.426c-2.087-1.27-2.485-1.117-4.28,0.966c-2.146,2.491-0.555,1.954,0.478,4.294
						c1.565,3.542-2.682,1.551-4.08,3.218c-0.698,0.832-0.665,4.629,0.13,5.438c0.502,0.511,1.04,0.336,1.668,0.44
						c0.927,0.154,1.501-0.126,1.984,0.297c-0.324-0.284,1.015,2.269,1.036,2.048c-0.217,2.291-3.082,1.534-1.321,4.176
						c1.477,2.215,2.639,2.641,4.594,1.711c1.08-0.514,0.679-1.03,1.703-1.021c0.349,0.003,1.666,0.846,1.678,0.869
						c0.43,0.784-0.415,2.102,0.264,2.894c0.834,0.973,4.718,1.07,5.632,0.269c0.699-0.613,0.268-1.242,0.533-1.981
						c0.597-1.662-0.369-0.861,1.39-1.645c1.256-0.56,0.886-0.51,1.993-0.223c1.262,0.327,0.882,1.514,2.535,1.037
						c0.719-0.207,2.518-2.176,2.792-2.816c0.283-0.662,0.41-1.11,0.14-1.865c-0.218-0.611-1.54-0.978-1.641-1.593
						c-0.047-0.284,1.188-2.844,1.248-3.079c0.239-0.936-1.207-1.335-1.446-0.399c-0.226,1.186-0.65,2.302-1.273,3.348
						c-0.152,0.292-0.13,0.672,0.117,0.909c1.45,1.39,1.98,1.354,0.568,2.897c-1.41,1.542-1.487,0.972-2.917-0.4
						c-0.242-0.232-0.616-0.286-0.909-0.117c-1.094,0.723-2.276,1.218-3.547,1.484c-0.318,0.089-0.551,0.393-0.551,0.723
						c0,2.19,0.551,2.485-1.714,2.481c-2.189-0.004-1.714-0.398-1.714-2.555c0-0.343-0.235-0.619-0.551-0.723
						c-0.994-0.418-1.988-0.835-2.983-1.253c-0.291-0.151-0.672-0.132-0.909,0.117c-1.545,1.626-1.366,2.317-3.047,0.746
						c-1.646-1.539-0.902-1.567,0.605-3.154c0.234-0.246,0.283-0.612,0.117-0.909c-0.646-1.013-1.098-2.1-1.356-3.262
						c-0.09-0.313-0.392-0.556-0.723-0.551c-2.288,0.036-2.807,0.705-2.853-1.658c-0.045-2.31,0.631-1.736,2.866-1.77
						c0.341-0.005,0.622-0.231,0.723-0.551c0.398-0.989,0.796-1.979,1.194-2.968c0.147-0.296,0.133-0.669-0.117-0.909
						c-1.676-1.607-2.604-1.528-0.956-3.27c1.597-1.689,1.692-0.774,3.309,0.775c0.242,0.232,0.616,0.287,0.909,0.117
						c0.987-0.654,2.061-1.123,3.222-1.406c0.317-0.097,0.551-0.387,0.551-0.723c0-2.297-0.668-2.854,1.714-2.857
						c2.268-0.002,1.714,0.574,1.714,2.784c0,0.334,0.234,0.63,0.551,0.723c0.971,0.366,1.942,0.732,2.912,1.097
						c0.299,0.14,0.666,0.138,0.909-0.117c1.57-1.653,1.408-2.405,3.117-0.82c1.628,1.51,0.948,1.519-0.536,3.081
						c-0.226,0.238-0.294,0.621-0.117,0.909c0.692,0.99,1.195,2.075,1.511,3.252c0.102,0.311,0.383,0.556,0.723,0.551
						c1.935-0.03,2.054-0.453,2.555,1.202c0.753,2.492-0.51,2.195-2.391,2.224C830.495,213.914,830.492,215.414,831.459,215.399z"/>
					<path style="fill:#F7E1A0;" d="M826.397,214.858c-1.515,3.047-4.932,4.795-8.227,3.329c-3.1-1.379-4.604-5.306-3.024-8.359
						c3.604-6.966,13.883-2.072,11.176,5.209c-0.337,0.906,1.112,1.297,1.446,0.399c3.413-9.178-10.305-14.956-14.153-5.879
						c-1.593,3.757,0.134,8.175,3.798,9.925c3.978,1.9,8.4-0.088,10.279-3.867C828.12,214.753,826.827,213.992,826.397,214.858z"/>
				</g>
			</g>
			<g>
				<polygon style="fill:#18104B;" points="517.258,347.081 513,347.228 497.732,407.302 501.99,407.155 				"/>
				<polygon style="fill:#18104B;" points="516.013,350.312 511.827,350.459 525.995,410.533 530.182,410.386 				"/>
				<polygon style="fill:#18104B;" points="471.737,347.081 467.478,347.228 452.21,407.302 456.469,407.155 				"/>
				<polygon style="fill:#18104B;" points="470.492,350.312 466.306,350.459 480.474,410.533 484.66,410.386 				"/>
				<path style="fill:#18104B;" d="M516.865,355.665H464.57c-1.433,0-2.594-1.161-2.594-2.594v-1.406h57.483v1.406
					C519.459,354.504,518.298,355.665,516.865,355.665z"/>
				<polygon style="fill:#F7E1A0;" points="525.051,351.513 456.751,351.513 444.305,265.615 512.605,265.615 				"/>
				<polygon style="fill:#F2CF67;" points="516.165,335.088 460.51,335.088 451.419,272.347 507.074,272.347 				"/>
				<path style="fill:none;stroke:#18104B;stroke-linecap:round;stroke-linejoin:round;stroke-miterlimit:10;" d="M460.51,335.088
					c0,0,9.507-40.678,12.885-42.789c3.379-2.112,13.514,12.247,16.47,10.558c2.956-1.689,8.549-25.526,8.549-25.526"/>
				<path style="fill:none;stroke:#18104B;stroke-linecap:round;stroke-linejoin:round;stroke-miterlimit:10;" d="M451.419,272.347
					c0.218,0.458,9.29,62.828,9.29,62.828l55.456-0.087"/>
				<polyline style="fill:none;stroke:#18104B;stroke-linecap:round;stroke-linejoin:round;stroke-miterlimit:10;" points="
					453.527,327.993 444.305,265.615 469.781,265.623 				"/>
				<polyline style="fill:none;stroke:#18104B;stroke-linecap:round;stroke-linejoin:round;stroke-miterlimit:10;" points="
					454.41,335.235 456.751,351.513 474.695,351.513 				"/>
				
					<line style="fill:none;stroke:#18104B;stroke-linecap:round;stroke-linejoin:round;stroke-miterlimit:10;" x1="462.794" y1="340.647" x2="517.765" y2="340.647"/>
				
					<line style="fill:none;stroke:#18104B;stroke-linecap:round;stroke-linejoin:round;stroke-miterlimit:10;" x1="464.979" y1="345.016" x2="519.949" y2="345.016"/>
				<path style="fill:none;stroke:#18104B;stroke-linecap:round;stroke-linejoin:round;stroke-miterlimit:10;" d="M496.214,272.303
					l10.86,0.044c0,0,2.023,12.995,2.023,13.467"/>
				<polyline style="fill:none;stroke:#18104B;stroke-linecap:round;stroke-linejoin:round;stroke-miterlimit:10;" points="
					491.96,265.294 512.605,265.615 514.617,279.839 				"/>
			</g>
			<path style="fill:#F29554;" d="M792.088,388.437c0,0,2.238,0.658,3.555,0.658c1.317,0,4.476-7.11,4.476-7.11l-1.816-1.588
				C798.304,380.397,794.59,381.854,792.088,388.437z"/>
			<path style="fill:#18104B;" d="M800.12,381.985c0,0-3.16,7.11-4.476,7.11c0,0-6.551,9.914-1.631,14.456
				c0,0,10.715-17.484,10.847-19.459C804.991,382.117,800.12,381.985,800.12,381.985z"/>
			<path style="fill:#F29554;" d="M714.422,283.18l-2.984,7.492c0,0-1.048,7.036-4.042,8.832
				c-2.994,1.796-12.126-10.03-12.126-10.03s-5.389-1.347-7.335,1.796c-1.946,3.144,0.715,10.347,8.982,16.317
				c2.695,1.946,15.569,7.784,19.76,1.796c4.192-5.988,7.485-15.868,7.485-15.868L714.422,283.18z"/>
			<path style="fill:#18104B;" d="M715.682,287.332l7.106,9.274l-5.901,2.65C716.886,299.255,715.802,286.971,715.682,287.332z"/>
			<path style="fill:#18104B;" d="M697.804,295.881c-5.356-3.571-10.713-4.166-8.134-0.595c2.579,3.571,20.83,14.879,26.98,13.093
				c3.557-1.033-3.184-2.125-9.324-5.555C702.852,300.325,697.804,295.881,697.804,295.881z"/>
			
				<rect x="597.436" y="394.221" style="fill:#F0C64C;stroke:#18104B;stroke-linecap:round;stroke-linejoin:round;stroke-miterlimit:10;" width="7.032" height="35.745"/>
			<rect x="597.436" y="394.221" style="fill:#18104B;" width="7.032" height="11.32"/>
			
				<rect x="660.337" y="394.221" style="fill:#F0C64C;stroke:#18104B;stroke-linecap:round;stroke-linejoin:round;stroke-miterlimit:10;" width="7.032" height="35.745"/>
			<rect x="660.337" y="394.221" style="fill:#18104B;" width="7.032" height="11.88"/>
			
				<rect x="628.886" y="362.77" transform="matrix(6.123234e-17 -1 1 6.123234e-17 234.6654 1030.1388)" style="fill:#F0C64C;stroke:#18104B;stroke-linecap:round;stroke-linejoin:round;stroke-miterlimit:10;" width="7.032" height="69.933"/>
			<path style="fill:#18104B;" d="M561.074,397.553h-19.532v3.447h34.18v-3.447C575.723,397.553,562.51,397.553,561.074,397.553z"/>
			<path style="fill:#F7E1A0;stroke:#18104B;stroke-miterlimit:10;" d="M568.841,354.221c6.537-24.746,22.254-38.287,22.254-38.287
				l15.075,61.498c-27.279,0-35.654,21.058-35.654,21.058S562.141,379.586,568.841,354.221z"/>
			<path style="fill:#B51DCC;" d="M581.958,390.215h-11.843c0,0-21.126,2.062-21.126,7.682h31.689L581.958,390.215z"/>
			<path style="fill:#F7E1A0;stroke:#18104B;stroke-miterlimit:10;" d="M657.379,376.475c0,0,27.518,0.718,37.09,20.34
				c0,0,20.1-44.03-21.536-82.316c0,0-2.154,16.75-7.179,35.894C660.797,369.275,657.379,376.475,657.379,376.475z"/>
			<g>
				<path style="fill:#F0C64C;stroke:#18104B;stroke-linecap:round;stroke-linejoin:round;stroke-miterlimit:10;" d="M678.9,262.639
					c0.574-10.96,0.957-22.56,1.111-34.8c0.313-24.877-4.474-45.535-11.194-62.178c-10.152,8.957-23.475,14.402-38.078,14.402
					c-14.381,0-27.521-5.284-37.613-14c-6.06,16.888-10.411,37.032-11.467,59.779c-2.348,50.563,15.906,125.286,24.121,151.053
					c1.287,4.037,2.328,6.873,3.004,8.225h4.399h39.984h4.997c0.962-2.389,1.927-5.016,2.886-7.881
					c5.296-15.809,10.44-38.873,14.043-69.176L678.9,262.639z"/>
				<path style="fill:#DCAA41;" d="M674.525,308.252c-0.098,0.18-6.203-0.649-6.203-0.649s0.612-10.409-7.756-10.409
					c-7.143,0-7.345,10.903-7.345,10.903l-11.023,0.118l-0.04-15.273c0,0-11.819,1.704-11.819-7.797
					c0-8.878,11.404-7.776,11.404-7.776l-0.345-12.951l11.066-0.393c0,0,0.669,9.75,8.768,9.75c8.255,0,9.19-10.436,9.19-10.436
					s7.898-0.257,7.912-0.513C678.333,262.828,676.153,305.263,674.525,308.252z"/>
				<path style="fill:#F7E1A0;stroke:#18104B;stroke-miterlimit:10;" d="M668.816,165.661
					c-14.724-36.464-38.731-53.648-38.731-53.648c-12.239,7.11-26.939,26.125-36.96,54.051c10.092,8.716,23.232,14,37.613,14
					C645.341,180.063,658.665,174.618,668.816,165.661z"/>
			</g>
			<path style="fill:#F2CF67;stroke:#18104B;stroke-linecap:round;stroke-linejoin:round;stroke-miterlimit:10;" d="
				M661.049,377.239c-0.96,2.865-1.925,5.492-2.886,7.881h-4.997h-39.984h-4.399c-0.676-1.353-1.717-4.188-3.004-8.225h55.213
				L661.049,377.239z"/>
			<path style="fill:#18104B;" d="M653.166,385.12h-39.984l4.294,9.516h32.068C649.543,394.637,653.166,385.13,653.166,385.12z"/>
			<path style="fill:#F7E1A0;stroke:#18104B;stroke-miterlimit:10;" d="M634.407,313.542c-3.589,2.393-12.682,55.994,0.239,81.359
				c0,0,5.264-15.793,4.547-41.397C638.475,327.899,634.407,313.542,634.407,313.542z"/>
			<circle style="fill:none;stroke:#18104B;stroke-miterlimit:10;" cx="630.739" cy="218.946" r="26.323"/>
			<circle style="fill:#F7E1A0;stroke:#18104B;stroke-miterlimit:10;" cx="630.418" cy="219.066" r="20.729"/>
			<path style="fill:#B51DCC;" d="M583.986,209.876c8.044,1.238,21.657,12.066,22.894,13.458s0.096,20.324-1.392,21.811
				c-0.309,0.309-14.077-7.425-14.077-7.425L583.986,209.876z"/>
			<path style="fill:#18104B;" d="M591.687,219.936c0,0,4.122,11.671,4.404,15.337c0.282,3.666-7.331,3.102-7.331,3.102
				L591.687,219.936z"/>
			<path style="fill:#DC94BA;" d="M606.881,223.334c1.238,1.392,0.096,20.324-1.392,21.811c-0.13,0.13,1.794,0.875,4.355,1.701
				c3.527,1.138,8.261,2.428,10.495,2.475c9.009,0.19,16.707-24.441,17.944-27.844s5.105-8.972,4.641-10.055
				c-0.464-1.083-2.475-0.928-4.177,1.702c0,0,3.094-5.105,1.237-5.569c-1.856-0.464-4.641,3.867-4.641,3.867
				s2.784-6.033,1.083-6.961s-4.95,4.022-4.95,4.022s1.702-5.105,0.309-5.878s-5.105,9.127-5.105,9.127s-0.773-4.331-2.32-4.331
				c-1.392,0-1.237,4.177,0.773,11.757l-6.961,13.458L606.881,223.334z"/>
			<path style="fill:#18104B;" d="M609.844,246.847c-2.561-0.826-4.485-1.571-4.355-1.701c1.488-1.488,2.63-20.419,1.392-21.811
				c0,0,3.829,14.205,3.581,17.678C610.213,244.486,609.844,246.847,609.844,246.847z"/>
			<path style="fill:#DC94BA;" d="M560.42,208.686c0,0-0.447-18.285,2.457-25.06c4.422-10.319,23.832-10.81,23.832,0.983
				c0,7.862,1.72,16.215-1.474,18.181c-3.194,1.965-8.599,0.983-8.599,0.983l-0.491,5.159
				C576.144,208.931,560.051,208.317,560.42,208.686z"/>
			<path style="fill:#18104B;" d="M560.248,204.094c0,0-0.212,2.47,6.861,2.47c5.452,0,7.561-2.47,7.561-2.47
				s3.44-5.236,3.931-7.939c0,0-3.44-0.246-2.948-4.422c0.491-4.177,3.44-3.931,3.931,0c0,0,3.685-0.737,3.194-6.388
				c0,0,12.2-1.451,10.319-8.599c-1.228-4.668-7.616-2.211-7.616-2.211s3.44-4.914-1.474-6.388
				c-6.05-1.815-13.021,6.142-13.021,6.142s0-5.159-2.703-4.422c-2.703,0.737-5.965,4.336-4.736,9.495c0,0-4.098-3.16-6.074-0.159
				C555.203,182.649,560.248,195.043,560.248,204.094z"/>
			<path style="fill:#B51DCC;" d="M545.463,213.723c6.522-3.261,11.763-5.038,14.957-5.038c3.194,0,15.724,0,15.724,0
				s14.741-0.983,16.707,12.039c0.886,5.871-4.668,55.525-4.668,55.525h-46.68l1.474-28.008l0.737-32.185
				C543.713,216.056,543.989,214.46,545.463,213.723z"/>
			<path style="fill:#18104B;" d="M544.49,257.267c6.485-5.639,12.407-10.997,13.535-16.354c1.918-9.11-0.018-16.168-0.018-16.168
				L544.49,257.267z"/>
			<path style="fill:#B51DCC;" d="M533.295,233.339c4.229-15.15,10.618-18.482,13.408-20.112
				c4.121-2.407,10.114-5.293,11.303,11.517c0.682,9.636-6.346,19.567-6.346,19.567L533.295,233.339z"/>
			<path style="fill:#DC94BA;" d="M551.661,244.311l-18.366-10.972l-7.271,23.256l-10.073,24.077c0,0-9.494,4.927-10.073,8.353
				c-0.922,5.46,6.389,12.118,8.108,10.073c0.426-0.507-0.935-2.786-1.621-5.225c0,0,0.773-6.342,5.061-4.357
				c2.542,1.177,4.422,6.634,4.422,6.634s1.474-6.388,1.228-8.845c-0.246-2.457,11.056-14.25,16.707-22.112
				C545.433,257.331,551.661,244.311,551.661,244.311z"/>
			<path style="fill:#18104B;" d="M585.848,285.598c0,8.058-4.82,52.763-4.82,52.763l0.93,51.854h-20.007
				c0,0-2.63-25.594-5.034-46.523c-1.876-16.332-3.614-38.448-3.858-40.031c-0.556-3.612-1.389-11.393,8.614-16.117
				C571.677,282.819,585.848,285.598,585.848,285.598z"/>
			<path style="fill:#18104B;" d="M588.183,276.249h-46.68c0,0-17.621,16.852-20.122,24.077c-2.501,7.225,12.227,55.02,12.227,55.02
				l21.397-3.612l-8.892-44.461c0,0,17.784-6.391,21.675-8.336s17.506-3.612,20.007-16.395L588.183,276.249z"/>
			<path style="fill:none;stroke:#F2CF67;stroke-linecap:round;stroke-linejoin:round;stroke-miterlimit:10;" d="M546.112,307.273
				c0,0,17.784-6.391,21.675-8.336s17.506-3.612,20.007-16.395"/>
			<path style="fill:#B51DCC;" d="M541.676,357.929l-1.086-3.762l14.414-2.434c0,0,2.223,9.448,0.278,10.837
				s-21.675,4.168-27.788,2.779C527.494,365.35,528.512,359.472,541.676,357.929z"/>
			<polygon style="fill:#F2CF67;" points="521.13,314.446 519.094,324.464 497.744,429.541 506.227,429.541 525.832,331.735 
				527.091,325.451 			"/>
			<polygon style="fill:#18104B;" points="519.094,324.464 521.13,314.446 527.091,325.451 525.832,331.735 			"/>
			<polygon style="fill:#18104B;" points="527.494,365.35 527.494,368.83 558.202,368.83 558.202,364.717 			"/>
			<path style="fill:#F7E1A0;" d="M513.985,299.098c0.426-0.507-0.935-2.786-1.621-5.225c0,0,0.773-6.342,5.061-4.357
				c2.542,1.177,4.422,6.634,4.422,6.634l65.643,135.638h-9.856L513.985,299.098z"/>
			<path style="fill:#FF5C45;" d="M714.422,283.18l10.579,12.262l8.415-28.129C733.415,267.312,719.471,266.591,714.422,283.18z"/>
			<path style="fill:#FF5C45;" d="M733.415,267.312c-7.137,2.729-13.464,9.617-11.059,27.168
				c2.404,17.551,4.328,32.938,4.328,32.938l35.823-3.606c0,0,3.366-46.402-1.683-52.412S741.59,264.187,733.415,267.312z"/>
			<path style="fill:none;stroke:#18104B;stroke-linecap:round;stroke-linejoin:round;stroke-miterlimit:10;" d="M722.904,280.269
				c-1.012,7.451,0.003,15.494,0.003,15.494l3.776,31.655"/>
			<path style="fill:#18104B;" d="M742.44,311.751c2.579,1.389,11.903-2.777,16.862-9.919c0,0,3.968-2.381,1.984-10.316
				C759.302,283.581,742.44,311.751,742.44,311.751z"/>
			<path style="fill:#18104B;" d="M730.518,239.561c-3.125,0.24-4.087,6.251-0.962,9.857c0,0,5.53-2.404,6.011-5.53
				C736.047,240.764,730.518,239.561,730.518,239.561z"/>
			<path style="fill:#F29554;" d="M732.213,242.308c-2.688,1.075-6.738,16.155-5.551,18.204c1.168,2.016,4.821,3.514,7.084,3.588
				l-0.331,3.212c0,0-3.606,3.366-1.202,4.087c2.404,0.721,11.059-3.366,12.502-4.808l0.721-5.289l1.186-5.625
				c0,0,1.939-6.156,0.016-8.8S737.022,240.385,732.213,242.308z"/>
			<path style="fill:#18104B;" d="M733.415,267.312l0.331-3.212c0,0,4.216,1.071,6.143,1.071L733.415,267.312z"/>
			<path style="fill:#18104B;" d="M730.29,233.894c-3.241,1.722-1.443,5.77,1.923,8.415c3.366,2.645,7.545,3.705,7.545,3.705
				s0,3.847,3.126,4.087c0,0-1.294,8.557-0.092,9.278c1.202,0.721,2.885-3.366,2.885-3.366s7.904-0.274,7.213-6.491
				c-0.24-2.164-3.366-1.683-3.366-1.683s2.885-3.125-0.962-9.376c-4.389-7.131-8.655-1.923-8.415,0.962
				C740.147,239.423,737.983,229.806,730.29,233.894z"/>
			<path style="fill:#FF5C45;" d="M744.234,287.748c0,0,10.819,6.732,14.185,12.021c0,0,12.742-13.704,4.087-26.447
				S744.234,287.748,744.234,287.748z"/>
			<path style="fill:#F0C64C;stroke:#18104B;stroke-linecap:round;stroke-linejoin:round;stroke-miterlimit:10;" d="
				M687.782,307.225c0.94-0.045,1.637-0.874,1.536-1.809c-0.343-3.181-0.33-9.759,5.39-10.935c5.965-1.227,9.184,3.398,10.511,7.181
				c0.558,1.592,2.191,2.538,3.856,2.267l8.802-1.43l-4.502-36.581c-0.108-0.875-0.894-1.505-1.772-1.418l-9.037,0.893
				c-0.874,0.086-1.521,0.845-1.46,1.721c0.219,3.164-0.001,10.133-5.984,11.283c-7.047,1.355-9.542-5.677-9.969-9.786
				c-0.091-0.879-0.893-1.508-1.773-1.42l-8.651,0.865c-0.891,0.089-1.542,0.883-1.455,1.775l1.19,12.159
				c0,0-11.377-0.898-10.479,8.832c0.898,9.731,11.527,6.138,11.826,6.587c0.225,0.337,0.787,5.99,1.053,8.787
				c0.082,0.864,0.828,1.51,1.694,1.469L687.782,307.225z"/>
			<path style="fill:#18104B;" d="M705.526,282.218c-1.663,0.314-2.949,2.095-1.267,4.767c1.682,2.672,3.958,2.969,3.167,1.484
				C706.634,286.986,705.526,282.218,705.526,282.218z"/>
			<path style="fill:#F29554;" d="M694.707,294.48c2.645,2.645,26.191,21.767,43.276,18.272
				c10.579-2.164,18.753-14.185,18.753-14.185s-5.289-9.857-10.819-9.857c0,0-7.694,10.579-10.579,10.819
				c-2.885,0.24-18.272-3.606-25.725-10.338c0,0-2.404-7.694-4.087-6.972c-1.683,0.721,0.721,5.77,0.721,5.77
				s-2.885-2.645-6.732-6.011c-3.847-3.366-2.404,2.885,0.481,5.289c0,0-4.568-4.568-5.77-4.087
				c-1.202,0.481,1.683,5.53,4.087,6.972c0,0-5.289-4.808-6.011-4.087c-0.721,0.721,2.365,4.171,4.328,6.251
				c0,0-3.945-2.905-4.328-2.164C691.442,291.821,694.707,294.48,694.707,294.48z"/>
			<path style="fill:#18104B;" d="M711.873,408.961l3.451-0.09l8.903-0.232c0,0,0.079-31.281,2.614-38.568
				c3.792-10.901,34.305-30.256,35.666-46.26l-35.823,3.606c0,0-12.853,22.417-16.578,33.407c-1.4,4.13-1.91,9.665-1.921,15.48
				C708.156,391.071,711.873,408.961,711.873,408.961z"/>
			<path style="fill:#F29554;" d="M715.325,408.872l8.903-0.232l-0.192,2.887c0,0-5.445,1.18-7.805-0.182L715.325,408.872z"/>
			<path style="fill:#18104B;" d="M699.797,417.88c3.903-6.262,16.433-6.535,16.433-6.535c2.36,1.361,7.805,0.182,7.805,0.182
				s0.635,4.538,0,5.627C723.4,418.243,699.797,417.88,699.797,417.88z"/>
			<path style="fill:#18104B;" d="M726.684,327.418c0,0,10.985,28.596,25.787,40.344c15.608,12.387,34.079,21.588,39.778,24.065
				l6.056-11.43c0,0-21.455-19.005-30.942-24.697c-3.716-2.23-2.009-21.88-4.855-31.889L726.684,327.418z"/>
			<path style="fill:#F29554;" d="M744.751,260.824c1.404,0.624,2.964-0.156,3.744-2.808c0.449-1.526-0.624-3.744-2.652-1.56"/>
			<path style="fill:#F7E1A0;" d="M511.545,213.261h-54.713c-1.29,0-2.336-1.046-2.336-2.336v-11.746
				c0-1.29,1.046-2.336,2.336-2.336h54.713c1.29,0,2.336,1.046,2.336,2.336v11.746C513.882,212.215,512.836,213.261,511.545,213.261
				z"/>
			<path style="fill:#18104B;" d="M474.458,209.434h-12.637c-1.31,0-2.371-1.062-2.371-2.371v-4.325c0-1.31,1.062-2.371,2.371-2.371
				h12.637c1.31,0,2.371,1.062,2.371,2.371v4.325C476.83,208.373,475.768,209.434,474.458,209.434z"/>
			<g>
				
					<circle style="fill:#F2CF67;stroke:#18104B;stroke-width:2;stroke-linecap:round;stroke-linejoin:round;stroke-miterlimit:10;" cx="455.329" cy="211.012" r="6.037"/>
				
					<line style="fill:#F2CF67;stroke:#18104B;stroke-width:2;stroke-linecap:round;stroke-linejoin:round;stroke-miterlimit:10;" x1="446.627" y1="221.194" x2="451.388" y2="215.892"/>
			</g>
			<g>
				
					<circle style="fill:none;stroke:#F7E1A0;stroke-width:2;stroke-linecap:round;stroke-linejoin:round;stroke-miterlimit:10;" cx="773.058" cy="176.679" r="6.037"/>
				
					<line style="fill:none;stroke:#F7E1A0;stroke-width:2;stroke-linecap:round;stroke-linejoin:round;stroke-miterlimit:10;" x1="781.76" y1="186.862" x2="777" y2="181.56"/>
			</g>
			<g>
				<path style="fill:#18104B;" d="M765.101,243.475l-1.323-0.547c-0.239-0.099-0.352-0.373-0.254-0.612l0.397-0.961
					c0.099-0.239,0.373-0.352,0.612-0.254l1.323,0.547c0.239,0.099,0.352,0.373,0.254,0.611l-0.397,0.961
					C765.614,243.461,765.34,243.574,765.101,243.475z"/>
				<path style="fill:#18104B;" d="M766.604,242.876l-3.503-1.449c-0.324-0.134-0.478-0.506-0.344-0.83l0.27-0.652
					c0.134-0.324,0.506-0.478,0.83-0.344l3.503,1.449c0.324,0.134,0.478,0.506,0.344,0.83l-0.27,0.652
					C767.3,242.856,766.929,243.01,766.604,242.876z"/>
				<circle style="fill:#FFFFFF;" cx="768.192" cy="234.311" r="5.678"/>
				<path style="fill:#18104B;" d="M767.998,241.725l-4.962-2.052c-0.375-0.155-0.553-0.584-0.398-0.959l0.194-0.469
					c0.155-0.375,0.584-0.553,0.959-0.398l4.962,2.052c0.375,0.155,0.553,0.584,0.398,0.959l-0.194,0.469
					C768.802,241.701,768.373,241.88,767.998,241.725z"/>
				<path style="fill:none;stroke:#18104B;stroke-width:0.5;stroke-linecap:round;stroke-linejoin:round;stroke-miterlimit:10;" d="
					M764.791,238.744c0,0,1.803-3.485,1.898-4.597c0.144-1.678-1.918-1.007-1.269,0.198c0.394,0.732,2.926,2.301,4.093,2.009
					c1.348-0.337,0.437-2.207-0.522-1.152c-0.391,0.43-1.147,2.828-1.796,4.127"/>
			</g>
			<path style="fill:none;stroke:#18104B;stroke-linecap:round;stroke-linejoin:round;stroke-miterlimit:10;" d="M533.295,233.339
				c0,0,3.237-22.841,27.125-24.653c5.991-0.455,15.724,0,15.724,0"/>
			<path style="fill:none;stroke:#18104B;stroke-linecap:round;stroke-linejoin:round;stroke-miterlimit:10;" d="M590.479,215.558
				c3.481,5.087,1.562,12.572,0.932,22.163c-0.629,9.59-3.229,38.529-3.229,38.529"/>
			<path style="fill:none;stroke:#18104B;stroke-linecap:round;stroke-linejoin:round;stroke-miterlimit:10;" d="M551.661,244.311
				c0,0,8.42-11.462,5.41-25.677"/>
			<path style="fill:none;stroke:#18104B;stroke-linecap:round;stroke-linejoin:round;stroke-miterlimit:10;" d="M584.089,210.095
				c0,0,8.554,0.212,22.792,13.239"/>
			
				<line style="fill:none;stroke:#18104B;stroke-linecap:round;stroke-linejoin:round;stroke-miterlimit:10;" x1="530.311" y1="231.759" x2="551.729" y2="244.465"/>
			<path style="fill:none;stroke:#18104B;stroke-linecap:round;stroke-linejoin:round;stroke-miterlimit:10;" d="M605.488,245.146
				c0,0,3.236-17.379,2.147-25.729"/>
			<path style="fill:none;stroke:#18104B;stroke-linecap:round;stroke-linejoin:round;stroke-miterlimit:10;" d="M618.173,232.615
				c0,0,4.346,3.137,4.709,6.404"/>
			
				<line style="fill:none;stroke:#18104B;stroke-linecap:round;stroke-linejoin:round;stroke-miterlimit:10;" x1="538.297" y1="258.623" x2="544.832" y2="262.254"/>
			
				<line style="fill:none;stroke:#18104B;stroke-linecap:round;stroke-linejoin:round;stroke-miterlimit:10;" x1="536.845" y1="261.527" x2="543.38" y2="265.158"/>
			
				<line style="fill:none;stroke:#18104B;stroke-linecap:round;stroke-linejoin:round;stroke-miterlimit:10;" x1="482.686" y1="201.5" x2="508.943" y2="201.5"/>
			
				<line style="fill:none;stroke:#18104B;stroke-linecap:round;stroke-linejoin:round;stroke-miterlimit:10;" x1="482.686" y1="206.978" x2="508.943" y2="206.978"/>
			<path style="fill:none;stroke:#18104B;stroke-linecap:round;stroke-linejoin:round;stroke-miterlimit:10;" d="M512.364,293.873
				c0,0,7.26,16.666,11.217,25.119c3.957,8.453,54.053,112.795,54.053,112.795"/>
			<polyline style="fill:none;stroke:#18104B;stroke-linecap:round;stroke-linejoin:round;stroke-miterlimit:10;" points="
				526.979,328.385 506.227,429.541 497.744,429.541 			"/>
			
				<line style="fill:none;stroke:#18104B;stroke-linecap:round;stroke-linejoin:round;stroke-miterlimit:10;" x1="521.13" y1="314.446" x2="506.915" y2="383.307"/>
			
				<line style="fill:none;stroke:#18104B;stroke-linecap:round;stroke-linejoin:round;stroke-miterlimit:10;" x1="519.81" y1="300.926" x2="582.373" y2="431.458"/>
			
				<line style="fill:none;stroke:#18104B;stroke-linecap:round;stroke-linejoin:round;stroke-miterlimit:10;" x1="501.659" y1="425.665" x2="523.672" y2="323.711"/>
			<path style="fill:none;stroke:#18104B;stroke-linecap:round;stroke-linejoin:round;stroke-miterlimit:10;" d="M474.699,212.891
				h36.847c0,0,1.697,0.009,2.336-1.966c0.639-1.975,0-11.746,0-11.746"/>
			<path style="fill:none;stroke:#18104B;stroke-linecap:round;stroke-linejoin:round;stroke-miterlimit:10;" d="M454.496,199.179
				c0,0-0.389-2.336,2.336-2.336c2.725,0,41.096,0,41.096,0"/>
			<path style="fill:#F7E1A0;" d="M813.712,298.749h30.753c1.29,0,2.336-1.046,2.336-2.336v-11.746c0-1.29-1.046-2.336-2.336-2.336
				h-30.753c-1.29,0-2.336,1.046-2.336,2.336v11.746C811.375,297.703,812.421,298.749,813.712,298.749z"/>
			<path style="fill:#18104B;" d="M833.474,294.922h6.002c1.31,0,2.371-1.062,2.371-2.371v-4.325c0-1.309-1.062-2.371-2.371-2.371
				h-6.002c-1.31,0-2.371,1.062-2.371,2.371v4.325C831.103,293.861,832.165,294.922,833.474,294.922z"/>
			<g>
				
					<circle style="fill:#F2CF67;stroke:#18104B;stroke-width:2;stroke-linecap:round;stroke-linejoin:round;stroke-miterlimit:10;" cx="845.968" cy="296.499" r="6.037"/>
				
					<line style="fill:#F2CF67;stroke:#18104B;stroke-width:2;stroke-linecap:round;stroke-linejoin:round;stroke-miterlimit:10;" x1="854.67" y1="306.682" x2="849.91" y2="301.38"/>
			</g>
			
				<line style="fill:none;stroke:#18104B;stroke-linecap:round;stroke-linejoin:round;stroke-miterlimit:10;" x1="825.247" y1="286.988" x2="816.314" y2="286.988"/>
			
				<line style="fill:none;stroke:#18104B;stroke-linecap:round;stroke-linejoin:round;stroke-miterlimit:10;" x1="825.247" y1="292.466" x2="816.314" y2="292.466"/>
			<path style="fill:none;stroke:#18104B;stroke-linecap:round;stroke-linejoin:round;stroke-miterlimit:10;" d="M834.042,298.379
				h-20.331c0,0-1.697,0.009-2.336-1.966c-0.639-1.975,0-11.746,0-11.746"/>
			<path style="fill:none;stroke:#18104B;stroke-linecap:round;stroke-linejoin:round;stroke-miterlimit:10;" d="M846.801,284.667
				c0,0,0.389-2.336-2.336-2.336c-2.725,0-24.883,0-24.883,0"/>
			<path style="fill:none;stroke:#18104B;stroke-linecap:round;stroke-linejoin:round;stroke-miterlimit:10;" d="M764.262,288.739
				c-0.075,2.436-5.158,11.705-5.158,11.705s-1.637-2.043-5.283-6.418c-3.646-4.375-9.586-6.277-9.586-6.277
				s3.958-9.325,7.728-14.483"/>
			<path style="fill:none;stroke:#18104B;stroke-linecap:round;stroke-linejoin:round;stroke-miterlimit:10;" d="M735.034,312.982
				c-18.592,1.673-40.327-18.502-40.327-18.502"/>
			<path style="fill:none;stroke:#18104B;stroke-linecap:round;stroke-linejoin:round;stroke-miterlimit:10;" d="M740.054,312.052
				c0,0,9.566-2.057,16.682-13.485"/>
			<path style="fill:none;stroke:#18104B;stroke-linecap:round;stroke-linejoin:round;stroke-miterlimit:10;" d="M729.942,268.901
				c-0.794,2.381-0.794,4.761,2.182,4.761c2.976,0,13.688-3.968,15.275-6.15"/>
			<path style="fill:none;stroke:#F2CF67;stroke-linecap:round;stroke-linejoin:round;stroke-miterlimit:10;" d="M729.071,331.482
				c0,0,7.458,18.497,12.232,25.06"/>
			<circle style="fill:#FFFFFF;" cx="529.713" cy="170.157" r="1.58"/>
			<circle style="fill:#FFFFFF;" cx="415.59" cy="213.064" r="1.58"/>
			<circle style="fill:#FFFFFF;" cx="712.331" cy="172.303" r="1.58"/>
			<circle style="fill:#FFFFFF;" cx="839.101" cy="401.9" r="1.58"/>
			<circle style="fill:#FFFFFF;" cx="798.88" cy="263.212" r="1.58"/>
			<circle style="fill:#FFFFFF;" cx="548.95" cy="415.419" r="1.58"/>
			<circle style="fill:#FFFFFF;" cx="405.503" cy="323.96" r="1.58"/>
			<line style="fill:none;stroke:#FFFFFF;stroke-miterlimit:10;" x1="684.468" y1="153.134" x2="687.972" y2="153.134"/>
			<line style="fill:none;stroke:#FFFFFF;stroke-miterlimit:10;" x1="431.812" y1="363.348" x2="438.584" y2="363.348"/>
			<line style="fill:none;stroke:#FFFFFF;stroke-miterlimit:10;" x1="748.226" y1="384.961" x2="754.998" y2="384.961"/>
			<line style="fill:none;stroke:#FFFFFF;stroke-miterlimit:10;" x1="467.167" y1="243.035" x2="473.94" y2="243.035"/>
			<line style="fill:none;stroke:#FFFFFF;stroke-miterlimit:10;" x1="501.021" y1="138.604" x2="507.794" y2="138.604"/>
			<line style="fill:none;stroke:#FFFFFF;stroke-miterlimit:10;" x1="837.565" y1="144.994" x2="844.337" y2="144.994"/>
			<line style="fill:none;stroke:#FFFFFF;stroke-miterlimit:10;" x1="425.478" y1="175.061" x2="432.251" y2="175.061"/>
			<g>
				<path style="fill:#F7E1A0;" d="M698.524,228.74v-25.113c0-1.558,1.263-2.821,2.821-2.821h44.327
					c1.558,0,2.821,1.263,2.821,2.821v18.093c0,1.558-1.263,2.821-2.821,2.821h-41.059L698.524,228.74z"/>
				<path style="fill:none;stroke:#18104B;stroke-linecap:round;stroke-linejoin:round;stroke-miterlimit:10;" d="M698.524,203.627
					v25.113c0.324-0.673,6.088-4.199,6.088-4.199h41.059c0,0,2.821-0.274,2.821-2.821"/>
				
					<line style="fill:none;stroke:#18104B;stroke-linecap:round;stroke-linejoin:round;stroke-miterlimit:10;" x1="705.328" y1="206.15" x2="742.808" y2="206.15"/>
				
					<line style="fill:none;stroke:#18104B;stroke-linecap:round;stroke-linejoin:round;stroke-miterlimit:10;" x1="705.328" y1="211.576" x2="742.808" y2="211.576"/>
				
					<line style="fill:none;stroke:#18104B;stroke-linecap:round;stroke-linejoin:round;stroke-miterlimit:10;" x1="705.328" y1="216.811" x2="742.808" y2="216.811"/>
			</g>
			<g>
				<g>
					<path style="fill:#F7E1A0;stroke:#F7E1A0;stroke-linecap:round;stroke-linejoin:round;stroke-miterlimit:10;" d="
						M547.38,147.536h-11.146c-0.411,0-0.745-0.333-0.745-0.745v-14.935c0-0.411,0.333-0.745,0.745-0.745h11.146
						c0.411,0,0.745,0.333,0.745,0.745v14.935C548.125,147.202,547.792,147.536,547.38,147.536z"/>
					
						<line style="fill:none;stroke:#F2CF67;stroke-linecap:round;stroke-linejoin:round;stroke-miterlimit:10;" x1="537.887" y1="134.369" x2="545.585" y2="134.369"/>
					
						<line style="fill:none;stroke:#F2CF67;stroke-linecap:round;stroke-linejoin:round;stroke-miterlimit:10;" x1="537.887" y1="137.168" x2="545.585" y2="137.168"/>
					
						<line style="fill:none;stroke:#F2CF67;stroke-linecap:round;stroke-linejoin:round;stroke-miterlimit:10;" x1="537.887" y1="139.827" x2="545.585" y2="139.827"/>
					
						<line style="fill:none;stroke:#F2CF67;stroke-linecap:round;stroke-linejoin:round;stroke-miterlimit:10;" x1="537.887" y1="142.206" x2="545.585" y2="142.206"/>
					
						<line style="fill:none;stroke:#F2CF67;stroke-linecap:round;stroke-linejoin:round;stroke-miterlimit:10;" x1="537.887" y1="144.865" x2="545.585" y2="144.865"/>
				</g>
				<g>
					<path style="fill:#F2CF67;stroke:#F7E1A0;stroke-linecap:round;stroke-linejoin:round;stroke-miterlimit:10;" d="
						M556.288,158.808h-14.013c-0.517,0-0.936-0.419-0.936-0.936v-18.776c0-0.517,0.419-0.936,0.936-0.936h14.013
						c0.517,0,0.936,0.419,0.936,0.936v18.776C557.224,158.389,556.805,158.808,556.288,158.808z"/>
					
						<line style="fill:none;stroke:#F7E1A0;stroke-linecap:round;stroke-linejoin:round;stroke-miterlimit:10;" x1="544.353" y1="142.254" x2="554.03" y2="142.254"/>
					
						<line style="fill:none;stroke:#F7E1A0;stroke-linecap:round;stroke-linejoin:round;stroke-miterlimit:10;" x1="544.353" y1="145.773" x2="554.03" y2="145.773"/>
					
						<line style="fill:none;stroke:#F7E1A0;stroke-linecap:round;stroke-linejoin:round;stroke-miterlimit:10;" x1="544.353" y1="149.116" x2="554.03" y2="149.116"/>
					
						<line style="fill:none;stroke:#F7E1A0;stroke-linecap:round;stroke-linejoin:round;stroke-miterlimit:10;" x1="544.353" y1="152.107" x2="554.03" y2="152.107"/>
					
						<line style="fill:none;stroke:#F7E1A0;stroke-linecap:round;stroke-linejoin:round;stroke-miterlimit:10;" x1="544.353" y1="155.45" x2="554.03" y2="155.45"/>
				</g>
				<g>
					<path style="fill:#F7E1A0;stroke:#F7E1A0;stroke-linecap:round;stroke-linejoin:round;stroke-miterlimit:10;" d="
						M565.982,170.135h-17.096c-0.631,0-1.142-0.511-1.142-1.142v-22.908c0-0.631,0.511-1.142,1.142-1.142h17.096
						c0.631,0,1.142,0.511,1.142,1.142v22.908C567.125,169.624,566.613,170.135,565.982,170.135z"/>
					
						<line style="fill:none;stroke:#F2CF67;stroke-linecap:round;stroke-linejoin:round;stroke-miterlimit:10;" x1="551.421" y1="149.938" x2="563.228" y2="149.938"/>
					
						<line style="fill:none;stroke:#F2CF67;stroke-linecap:round;stroke-linejoin:round;stroke-miterlimit:10;" x1="551.421" y1="154.231" x2="563.228" y2="154.231"/>
					
						<line style="fill:none;stroke:#F2CF67;stroke-linecap:round;stroke-linejoin:round;stroke-miterlimit:10;" x1="551.421" y1="158.31" x2="563.228" y2="158.31"/>
					
						<line style="fill:none;stroke:#F2CF67;stroke-linecap:round;stroke-linejoin:round;stroke-miterlimit:10;" x1="551.421" y1="161.959" x2="563.228" y2="161.959"/>
					
						<line style="fill:none;stroke:#F2CF67;stroke-linecap:round;stroke-linejoin:round;stroke-miterlimit:10;" x1="551.421" y1="166.038" x2="563.228" y2="166.038"/>
				</g>
			</g>
			<g>
				<g>
					<path style="fill:#F7E1A0;stroke:#F7E1A0;stroke-linecap:round;stroke-linejoin:round;stroke-miterlimit:10;" d="
						M814.041,343.035h-11.146c-0.411,0-0.745-0.333-0.745-0.745v-14.935c0-0.411,0.333-0.745,0.745-0.745h11.146
						c0.411,0,0.745,0.333,0.745,0.745v14.935C814.786,342.701,814.453,343.035,814.041,343.035z"/>
					
						<line style="fill:none;stroke:#F2CF67;stroke-linecap:round;stroke-linejoin:round;stroke-miterlimit:10;" x1="804.549" y1="329.868" x2="812.246" y2="329.868"/>
					
						<line style="fill:none;stroke:#F2CF67;stroke-linecap:round;stroke-linejoin:round;stroke-miterlimit:10;" x1="804.549" y1="332.667" x2="812.246" y2="332.667"/>
					
						<line style="fill:none;stroke:#F2CF67;stroke-linecap:round;stroke-linejoin:round;stroke-miterlimit:10;" x1="804.549" y1="335.326" x2="812.246" y2="335.326"/>
					
						<line style="fill:none;stroke:#F2CF67;stroke-linecap:round;stroke-linejoin:round;stroke-miterlimit:10;" x1="804.549" y1="337.705" x2="812.246" y2="337.705"/>
					
						<line style="fill:none;stroke:#F2CF67;stroke-linecap:round;stroke-linejoin:round;stroke-miterlimit:10;" x1="804.549" y1="340.364" x2="812.246" y2="340.364"/>
				</g>
				<g>
					<path style="fill:#F2CF67;stroke:#F7E1A0;stroke-linecap:round;stroke-linejoin:round;stroke-miterlimit:10;" d="
						M822.949,354.307h-14.013c-0.517,0-0.936-0.419-0.936-0.936v-18.776c0-0.517,0.419-0.936,0.936-0.936h14.013
						c0.517,0,0.936,0.419,0.936,0.936v18.776C823.885,353.888,823.466,354.307,822.949,354.307z"/>
					
						<line style="fill:none;stroke:#F7E1A0;stroke-linecap:round;stroke-linejoin:round;stroke-miterlimit:10;" x1="811.014" y1="337.753" x2="820.691" y2="337.753"/>
					
						<line style="fill:none;stroke:#F7E1A0;stroke-linecap:round;stroke-linejoin:round;stroke-miterlimit:10;" x1="811.014" y1="341.272" x2="820.691" y2="341.272"/>
					
						<line style="fill:none;stroke:#F7E1A0;stroke-linecap:round;stroke-linejoin:round;stroke-miterlimit:10;" x1="811.014" y1="344.615" x2="820.691" y2="344.615"/>
					
						<line style="fill:none;stroke:#F7E1A0;stroke-linecap:round;stroke-linejoin:round;stroke-miterlimit:10;" x1="811.014" y1="347.606" x2="820.691" y2="347.606"/>
					
						<line style="fill:none;stroke:#F7E1A0;stroke-linecap:round;stroke-linejoin:round;stroke-miterlimit:10;" x1="811.014" y1="350.949" x2="820.691" y2="350.949"/>
				</g>
			</g>
		</g>
	</g>
	<g>
		<g>
			<text transform="matrix(1 0 0 1 78.2309 192.9784)"><tspan x="0" y="0" style="fill:#18104B; font-family:'Poppins-Bold'; font-size:42.8928px; letter-spacing:-1;">Start your</tspan><tspan x="0" y="36.611" style="fill:#18104B; font-family:'Poppins-Bold'; font-size:42.8928px; letter-spacing:-1;">bussiness</tspan><tspan x="0" y="73.223" style="fill:#18104B; font-family:'Poppins-Bold'; font-size:42.8928px; letter-spacing:-1;">with us. </tspan></text>
		</g>
		<path style="fill:#18104B;" d="M138.974,390.024H86.415c-4.52,0-8.184-3.664-8.184-8.184v-0.931c0-4.52,3.664-8.184,8.184-8.184
			h52.559c4.52,0,8.184,3.664,8.184,8.184v0.931C147.158,386.36,143.494,390.024,138.974,390.024z"/>
		<text transform="matrix(1 0 0 1 89.4586 385.1489)" style="fill:#FFFFFF; font-family:'Poppins-Bold'; font-size:10px;">Click Here</text>
		<rect x="78.189" y="287.836" style="fill:none;" width="241.887" height="22.736"/>
		<text transform="matrix(1 0 0 1 78.1884 295.2351)"><tspan x="0" y="0" style="fill:#18104B; font-family:'Poppins-Regular'; font-size:10px;">Description of services, who we are as a company </tspan><tspan x="0" y="12" style="fill:#18104B; font-family:'Poppins-Regular'; font-size:10px;">and some filler text about the company</tspan></text>
		
			<line style="fill:none;stroke:#18104B;stroke-linecap:round;stroke-linejoin:round;stroke-miterlimit:10;" x1="79.534" y1="142.656" x2="99.554" y2="142.656"/>
		<path style="fill:#FFFFFF;" d="M302.433,342.718H86.412c-4.908,0-8.887-3.979-8.887-8.887v0c0-4.908,3.979-8.887,8.887-8.887
			h216.021c4.908,0,8.887,3.979,8.887,8.887v0C311.32,338.74,307.341,342.718,302.433,342.718z"/>
		<g>
			
				<circle style="fill:none;stroke:#18104B;stroke-width:2;stroke-linecap:round;stroke-linejoin:round;stroke-miterlimit:10;" cx="94.993" cy="333.292" r="3.867"/>
			
				<line style="fill:#F2CF67;stroke:#18104B;stroke-width:2;stroke-linecap:round;stroke-linejoin:round;stroke-miterlimit:10;" x1="89.419" y1="339.814" x2="92.468" y2="336.418"/>
		</g>
		<g style="opacity:0.44;">
			<text transform="matrix(1 0 0 1 108.5737 337.1068)" style="fill:#18104B; font-family:'Poppins-Regular'; font-size:10px;">Search</text>
		</g>
		<g>
			<text transform="matrix(1 0 0 1 82.454 354.7233)" style="fill:#18104B; font-family:'Poppins-Bold'; font-size:5.9723px;">&gt;  Do you need help? get in touch with customer support</text>
		</g>
	</g>
	<g>
		<path style="fill:#18104B;" d="M209.322,44.423H88.451c-6.034,0-10.926-4.892-10.926-10.926V0h142.722v33.498
			C220.248,39.532,215.356,44.423,209.322,44.423z"/>
		<text transform="matrix(1 0 0 1 411.8566 34.0911)" style="fill:#18104B; font-family:'Poppins-Regular'; font-size:10px;">Home</text>
		<text transform="matrix(1 0 0 1 467.6774 33.5477)" style="fill:#18104B; font-family:'Poppins-Bold'; font-size:10px;">About us</text>
		<text transform="matrix(1 0 0 1 535.7898 33.5477)" style="fill:#18104B; font-family:'Poppins-Regular'; font-size:10px;">Gallery</text>
		<text transform="matrix(1 0 0 1 591.5468 33.5477)" style="fill:#18104B; font-family:'Poppins-Regular'; font-size:10px;">Contact us</text>
		<text transform="matrix(1 0 0 1 670.5508 33.5477)" style="fill:#18104B; font-family:'Poppins-Regular'; font-size:10px;">Search</text>
		<g>
			<text transform="matrix(1 0 0 1 179.1875 34.3066)" style="fill:#FFFFFF; font-family:'Poppins-Regular'; font-size:6.2096px;">By Design</text>
			<text transform="matrix(1 0 0 1 90.2735 34.0161)"><tspan x="0" y="0" style="fill:#FFFFFF; font-family:'Poppins-Bold'; font-size:13.3143px;">Startup</tspan><tspan x="47.092" y="0" style="fill:#FFFFFF; font-family:'Poppins-Light'; font-size:13.3143px;">Web</tspan></text>
			<circle style="fill:#FFFFFF;" cx="173.635" cy="32.138" r="2.119"/>
		</g>
		<path style="fill:#FFFFFF;" d="M811.173,36.759h-89.579c-3.215,0-5.822-2.606-5.822-5.822v0c0-3.215,2.607-5.822,5.822-5.822
			h89.579c3.215,0,5.822,2.606,5.822,5.822v0C816.995,34.153,814.388,36.759,811.173,36.759z"/>
		<rect x="463.969" y="37.601" style="fill:#18104B;" width="48.634" height="1.769"/>
	</g>
</g>
</svg>
